# xmcd
#
# Track frame offsets: 
#        150
#        3484
#        29232
#        51196
#        75119
#        95399
#        119297
#        143441
#        165515
#        187666
#
# Disc length: 2864 seconds
#
# Revision: 1
# Processed by: cddbd v1.5.1PL0 Copyright (c) Steve Scherf et al.
# Submitted via: ExactAudioCopy v0.95a5
#
DISCID=6c0b2e0a
DTITLE=Ti Jack-Dédé Saint-Prix - A La Tingawa
DYEAR=2002
DGENRE=
TTITLE0=Jingle 
TTITLE1=Sa Ta Bel 
TTITLE2=Esprit 
TTITLE3=Ti Kamo
TTITLE4=Justement 
TTITLE5=Violans 
TTITLE6=Malgré 
TTITLE7=Come Back Darling
TTITLE8=Rimèsié Yo
TTITLE9=Trahison 
EXTD=
EXTT0=
EXTT1=
EXTT2=
EXTT3=
EXTT4=
EXTT5=
EXTT6=
EXTT7=
EXTT8=
EXTT9=
PLAYORDER=
